<svg xmlns="http://www.w3.org/2000/svg" direction="ltr" width="2332.227881640175" height="3117.0333599651963" viewBox="-314.434516207923 -1109.7122005738715 2332.227881640175 3117.0333599651963" stroke-linecap="round" stroke-linejoin="round" data-color-mode="light" class="tl-container tl-theme__force-sRGB tl-theme__light" style="background-color: transparent;"><defs/><g transform="matrix(1, 0, 0, 1, 1358.6008, 867.296)" opacity="1"><g stroke-width="5" transform="scale(1)" stroke="#4465e9" fill="none"><path d="M -17.1851 -5.2922 C -17.1851 -5.2922 -12.449 -201.9094 -57.7201 -214.8875" stroke-dasharray="10.235761279404494 11.259337407344944" stroke-dashoffset="0"/><path d="M -57.7201 -214.8875 C -102.9913 -227.8656 -234.4867 -67.5871 -234.4867 -67.5871" stroke-dasharray="10.017119619873561 10.927766858043885" stroke-dashoffset="5"/></g></g><g transform="matrix(1, 0, 0, 1, 1045.4921, 820.3986)" opacity="1"><g stroke-width="5" transform="scale(1)" stroke="#4465e9" fill="none"><path d="M -16.6873 -7.3376 C -16.6873 -7.3376 23.0681 25.1967 41.2 25.576" stroke-dasharray="12.052595205176656 18.078892807764984" stroke-dashoffset="0"/><path d="M 41.2 25.576 C 59.3319 25.9553 70.346 -5.517 70.346 -5.517" stroke-dasharray="16.684164952023956 16.684164952023956" stroke-dashoffset="5"/></g></g><g transform="matrix(1, 0, 0, 1, 1337.6946, 900.07)" opacity="1"><g stroke-width="5" transform="scale(1)" stroke="#1d1d1d" fill="none"><path d="M 0 0 C 0 0 -4.6041 33.5917 12.3649 50.1111" stroke-dasharray="19.422855525919022 19.422855525919022" stroke-dashoffset="0"/><path d="M 12.3649 50.1111 C 29.3338 66.6306 24.7668 87.2493 81.451 79.2935" stroke-dasharray="11.48950004810056 15.319333397467412" stroke-dashoffset="5"/><path d="M 81.451 79.2935 C 138.1351 71.3378 209.3458 -1.2541 284.449 11.9236" stroke-dasharray="10.330407446551824 11.363448191207004" stroke-dashoffset="5"/><path d="M 284.449 11.9236 C 359.5521 25.1014 383.1323 84.4012 441.9459 142.5466" stroke-dasharray="10.964976109427777 12.183306788253086" stroke-dashoffset="5"/><path d="M 441.9459 142.5466 C 500.7596 200.6921 559.8349 221.1451 566.7544 291.0216" stroke-dasharray="10.477665569516795 11.641850632796439" stroke-dashoffset="5"/><path d="M 566.7544 291.0216 C 573.6739 360.8981 518.7515 373.2773 475.1597 477.954" stroke-dasharray="10.102619368470581 11.11288130531764" stroke-dashoffset="5"/><path d="M 475.1597 477.954 C 431.568 582.6306 427.0627 743.6553 357.514 793.4694" stroke-dasharray="10.335487466060728 10.981455432689524" stroke-dashoffset="5"/><path d="M 357.514 793.4694 C 287.9652 843.2834 141.3258 717.0615 141.3258 717.0615" stroke-dasharray="10.312284594001135 11.249765011637601" stroke-dashoffset="5"/></g></g><g transform="matrix(1, 0, 0, 1, 1349.206, 868.572)" opacity="1"><g stroke-width="5" transform="scale(1)" stroke="#9fa8b2" fill="none"><path d="M 3.2712 -1.6356 C 3.2712 -1.6356 35.2966 -53.0111 47.42 -104.4655" stroke-dasharray="11.731437391546192 14.664296739432741" stroke-dashoffset="0"/><path d="M 47.42 -104.4655 C 59.5434 -155.9198 67.7003 -170.1555 61.4635 -248.6164" stroke-dasharray="11.134724294630152 12.990511677068511" stroke-dashoffset="5"/><path d="M 61.4635 -248.6164 C 55.2268 -327.0774 24.2609 -369.6226 17.4836 -481.0781" stroke-dasharray="10.294854342629568 11.230750191959528" stroke-dashoffset="5"/><path d="M 17.4836 -481.0781 C 10.7063 -592.5336 6.299 -691.9542 28.9325 -783.6029" stroke-dasharray="10.464505053553388 11.211969700235773" stroke-dashoffset="5"/><path d="M 28.9325 -783.6029 C 51.566 -875.2515 104.0355 -867.6011 126.1245 -920.9918" stroke-dasharray="10.098010680952841 11.360262016071946" stroke-dashoffset="5"/><path d="M 126.1245 -920.9918 C 148.2134 -974.3825 145.3535 -1000.1123 134.9595 -1039.8782" stroke-dasharray="11.008662855239173 13.210395426287008" stroke-dashoffset="5"/><path d="M 134.9595 -1039.8782 C 124.5655 -1079.6441 76.2332 -1111.8681 76.2332 -1111.8681" stroke-dasharray="12.453756841724617 16.60500912229949" stroke-dashoffset="5"/></g></g><g transform="matrix(1, 0, 0, 1, 48.6859, 1027.6898)" opacity="1"><g stroke-width="5" transform="scale(1)" stroke="#f1ac4b" fill="none"><path d="M -2.1491 0 C -2.1491 0 -47.311 0.0961 -37.889 44.2039" stroke-dasharray="11.98817076187172 17.98225614280758" stroke-dashoffset="0"/><path d="M -37.889 44.2039 C -28.467 88.3117 7.5797 169.763 43.0766 211.7175" stroke-dasharray="10.965337163261024 12.336004308668652" stroke-dashoffset="5"/><path d="M 43.0766 211.7175 C 78.5735 253.672 97.2159 235.2319 132.4962 245.5855" stroke-dasharray="10.959864882190248 13.699831102737809" stroke-dashoffset="5"/><path d="M 132.4962 245.5855 C 167.7765 255.9391 175.6505 276.9457 212.4222 261.4147" stroke-dasharray="11.886766573796528 15.849022098395372" stroke-dashoffset="5"/><path d="M 212.4222 261.4147 C 249.1938 245.8837 274.2465 200.2184 309.0001 171.0366" stroke-dasharray="10.223925863032921 11.927913506871741" stroke-dashoffset="5"/><path d="M 309.0001 171.0366 C 343.7537 141.8548 350.8746 153.0682 379.2394 121.342" stroke-dasharray="12.075708755659106 16.100945007545473" stroke-dashoffset="5"/><path d="M 379.2394 121.342 C 407.6041 89.6157 423.467 73.425 445.1508 18.7507" stroke-dasharray="11.073499153808536 13.288198984570244" stroke-dashoffset="5"/><path d="M 445.1508 18.7507 C 466.8346 -35.9237 460.2763 -101.021 483.3216 -141.0948" stroke-dasharray="10.941582212579272 12.504665385804882" stroke-dashoffset="5"/><path d="M 483.3216 -141.0948 C 506.3669 -181.1687 527.1623 -172.4337 555.7684 -173.6037" stroke-dasharray="11.972323260127649 15.963097680170199" stroke-dashoffset="5"/><path d="M 555.7684 -173.6037 C 584.3745 -174.7738 581.7916 -182.988 620.6307 -146.7111" stroke-dasharray="10.571710963376397 14.095614617835196" stroke-dashoffset="5"/><path d="M 620.6307 -146.7111 C 659.4699 -110.4342 660.5837 -7.1723 742.1964 0.5254" stroke-dasharray="10.524616315867117 11.694018128741241" stroke-dashoffset="5"/><path d="M 742.1964 0.5254 C 823.8092 8.2231 941.2438 -68.3315 1012.3719 -109.762" stroke-dasharray="10.195059200538171 10.923277714862326" stroke-dashoffset="5"/><path d="M 1012.3719 -109.762 C 1083.5001 -151.1926 1056.9441 -162.7261 1083.6115 -198.3414" stroke-dasharray="10.624893650268206 12.749872380321847" stroke-dashoffset="5"/><path d="M 1083.6115 -198.3414 C 1110.279 -233.9566 1122.7101 -257.3148 1140.3757 -280.7152" stroke-dasharray="11.005858507769542 13.757323134711928" stroke-dashoffset="5"/><path d="M 1140.3757 -280.7152 C 1158.0413 -304.1157 1158.1811 -299.1602 1168.4066 -310.6635" stroke-dasharray="17.044081201205234 17.044081201205234" stroke-dashoffset="5"/><path d="M 1168.4066 -310.6635 C 1178.6322 -322.1669 1181.3133 -329.0448 1189.4583 -335.9315" stroke-dasharray="13.729232559740833 13.729232559740833" stroke-dashoffset="4.11876976792225"/><path d="M 1189.4583 -335.9315 C 1197.6032 -342.8182 1192.3243 -339.8823 1207.5024 -343.7197" stroke-dasharray="8.39594323871611 8.39594323871611" stroke-dashoffset="2.5187829716148338"/><path d="M 1207.5024 -343.7197 C 1222.6805 -347.557 1246.3187 -391.6788 1262.3131 -354.3509" stroke-dasharray="10.050359841038748 13.400479788051664" stroke-dashoffset="5"/><path d="M 1262.3131 -354.3509 C 1278.3076 -317.0229 1284.2758 -164.5455 1284.2758 -164.5455" stroke-dasharray="10.920349298651884 12.28539296098337" stroke-dashoffset="5"/></g></g><g transform="matrix(1, 0, 0, 1, 327.4256, 1699.3276)" opacity="1"><g stroke-width="5" transform="scale(1)" stroke="#e03131" fill="none"><path d="M 5.2757 -0.8792 C 5.2757 -0.8792 200.4225 11.5516 284.4287 20.1822" stroke-dasharray="10.177032836709149 10.959881516456006" stroke-dashoffset="0"/><path d="M 284.4287 20.1822 C 368.435 28.8128 353.0112 31.6885 408.5056 40.5477" stroke-dasharray="11.319969144913047 13.583962973895657" stroke-dashoffset="5"/><path d="M 408.5056 40.5477 C 464 49.407 455.4077 43.2531 550.8017 62.7066" stroke-dasharray="11.005854259734317 12.840163303023369" stroke-dashoffset="5"/><path d="M 550.8017 62.7066 C 646.1957 82.1602 713.2933 139.8293 866.3966 133.9248" stroke-dasharray="10.499999745788399 11.19999972884096" stroke-dashoffset="5"/><path d="M 866.3966 133.9248 C 1019.5 128.0203 1170.7012 72.4168 1285.6979 34.365" stroke-dasharray="10.057478684875152 10.536406241297778" stroke-dashoffset="5"/><path d="M 1285.6979 34.365 C 1400.6946 -3.6868 1375.1892 20.3917 1418.3808 -48.7237" stroke-dasharray="10.931746498904877 12.493424570177002" stroke-dashoffset="5"/><path d="M 1418.3808 -48.7237 C 1461.5723 -117.8392 1461.2656 -217.0107 1493.0173 -297.389" stroke-dasharray="10.410267486286065 11.277789776809904" stroke-dashoffset="5"/><path d="M 1493.0173 -297.389 C 1524.769 -377.7673 1550.0749 -386.2085 1570.7891 -434.5397" stroke-dasharray="10.50947280307042 12.010826060651908" stroke-dashoffset="5"/><path d="M 1570.7891 -434.5397 C 1591.5033 -482.8708 1595.5314 -497.4786 1592.4455 -529.3786" stroke-dasharray="10.868360277088035 13.585450346360044" stroke-dashoffset="5"/><path d="M 1592.4455 -529.3786 C 1589.3597 -561.2785 1584.1552 -557.2704 1555.977 -587.6595" stroke-dasharray="10.152624848112541 13.536833130816722" stroke-dashoffset="5"/><path d="M 1555.977 -587.6595 C 1527.7988 -618.0486 1499.7802 -633.7924 1457.1902 -675.2462" stroke-dasharray="10.150673776679273 11.842452739459153" stroke-dashoffset="5"/><path d="M 1457.1902 -675.2462 C 1414.6002 -716.7001 1394.2428 -758.9655 1351.545 -786.638" stroke-dasharray="10.253643657861357 11.718449894698693" stroke-dashoffset="5"/><path d="M 1351.545 -786.638 C 1308.8472 -814.3106 1304.532 -817.5105 1252.2406 -808.0746" stroke-dasharray="11.618920616106085 14.523650770132608" stroke-dashoffset="5"/><path d="M 1252.2406 -808.0746 C 1199.9491 -798.6388 1144.5477 -753.7756 1100.546 -741.3458" stroke-dasharray="11.0182584147998 12.59229533119977" stroke-dashoffset="5"/><path d="M 1100.546 -741.3458 C 1056.5443 -728.9161 1058.3775 -736.464 1041.0323 -748.4118" stroke-dasharray="12.35981314190226 18.53971971285339" stroke-dashoffset="5"/><path d="M 1041.0323 -748.4118 C 1023.6871 -760.3597 1017.289 -798.6956 1017.289 -798.6956" stroke-dasharray="10.294767371517757 15.442151057276636" stroke-dashoffset="5"/></g></g><g transform="matrix(1, 0, 0, 1, 512.698, -291.1299)" opacity="1"><g stroke-width="5" transform="scale(1)" stroke="#4cb05e" fill="none"><path d="M 0 0 C 0 0 -39.6225 -24.8416 -71.7183 -7.4706" stroke-dasharray="10.029466810789001 13.372622414385335" stroke-dashoffset="0"/><path d="M -71.7183 -7.4706 C -103.814 9.9003 -134.1819 39.583 -154.0596 83.3806" stroke-dasharray="11.233764497067837 13.480517396481403" stroke-dashoffset="5"/><path d="M -154.0596 83.3806 C -173.9374 127.1782 -198.2161 155.3292 -167.1315 202.758" stroke-dasharray="11.516796040787428 13.820155248944914" stroke-dashoffset="5"/><path d="M -167.1315 202.758 C -136.0469 250.1869 -83.6345 241.5393 -4.8538 311.0391" stroke-dasharray="10.344214356417485 11.493571507130541" stroke-dashoffset="5"/><path d="M -4.8538 311.0391 C 73.927 380.5389 136.6234 488.1824 211.0159 536.3572" stroke-dasharray="10.089653862921383 10.762297453782809" stroke-dashoffset="5"/><path d="M 211.0159 536.3572 C 285.4084 584.532 300.2812 540.7382 352.2303 542.278" stroke-dasharray="11.315925133362141 13.201912655589163" stroke-dashoffset="5"/><path d="M 352.2303 542.278 C 404.1794 543.8178 420.9646 518.2116 460.3716 543.7482" stroke-dasharray="10.117661827521017 12.14119419302522" stroke-dashoffset="5"/><path d="M 460.3716 543.7482 C 499.7787 569.2847 496.103 605.2769 541.3843 664.8533" stroke-dasharray="11.225569982428459 13.096498312833203" stroke-dashoffset="5"/><path d="M 541.3843 664.8533 C 586.6656 724.4298 622.2763 772.1207 677.7218 829.715" stroke-dasharray="10.185516285251115 11.204067913776226" stroke-dashoffset="5"/><path d="M 677.7218 829.715 C 733.1673 887.3093 773.7466 893.4919 807.5228 941.306" stroke-dasharray="10.1061061435778 11.369369411525026" stroke-dashoffset="5"/><path d="M 807.5228 941.306 C 841.2989 989.12 834.2642 1014.8975 839.8475 1059.2225" stroke-dasharray="11.204278461546537 13.445134153855843" stroke-dashoffset="5"/><path d="M 839.8475 1059.2225 C 845.4308 1103.5476 834.3226 1154.0663 834.3226 1154.0663" stroke-dasharray="10.038512555116375 12.54814069389547" stroke-dashoffset="5"/></g></g><g transform="matrix(1, 0, 0, 1, 1257.3938, 1533.3774)" opacity="1"><g stroke-width="5" transform="scale(1)" stroke="#4ba1f1" fill="none"><path d="M 6.4121 -7.578 C 6.4121 -7.578 279.7706 174.4472 387.9689 192.4753" stroke-dasharray="10.419218217911114 10.940179128806669" stroke-dashoffset="0"/><path d="M 387.9689 192.4753 C 496.1671 210.5034 493.6503 117.4531 525.7638 78.9571" stroke-dasharray="10.444686915913394 11.605207684348215" stroke-dashoffset="5"/><path d="M 525.7638 78.9571 C 557.8773 40.461 534.3246 37.9317 542.1137 7.6942" stroke-dasharray="10.811650879620789 14.415534506161052" stroke-dashoffset="5"/><path d="M 542.1137 7.6942 C 549.9028 -22.5433 550.9798 -28.5879 563.1516 -66.183" stroke-dasharray="10.854523114393778 14.47269748585837" stroke-dashoffset="5"/><path d="M 563.1516 -66.183 C 575.3234 -103.7782 578.2392 -125.3121 600.5384 -172.7623" stroke-dasharray="10.258136030126996 12.309763236152397" stroke-dashoffset="5"/><path d="M 600.5384 -172.7623 C 622.8375 -220.2125 656.0853 -244.5154 670.1877 -293.9441" stroke-dasharray="10.741627488083129 12.531898736096984" stroke-dashoffset="5"/><path d="M 670.1877 -293.9441 C 684.29 -343.3727 697.6349 -361.2774 668.2298 -410.0196" stroke-dasharray="10.981566274980011 13.177879529976014" stroke-dashoffset="5"/><path d="M 668.2298 -410.0196 C 638.8246 -458.7618 589.5084 -475.3596 529.043 -527.9066" stroke-dasharray="10.752326385825217 12.096367184053369" stroke-dashoffset="5"/><path d="M 529.043 -527.9066 C 468.5776 -580.4536 454.5115 -647.7804 377.996 -662.2451" stroke-dasharray="10.83858457918908 12.042871754654534" stroke-dashoffset="5"/><path d="M 377.996 -662.2451 C 301.4805 -676.7098 220.791 -602.8403 161.7685 -597.3372" stroke-dasharray="10.86204696336126 11.948251659697387" stroke-dashoffset="5"/><path d="M 161.7685 -597.3372 C 102.746 -591.8341 94.688 -635.8301 94.688 -635.8301" stroke-dasharray="11.238031219426105 14.984041625901474" stroke-dashoffset="5"/></g></g><g transform="matrix(1, 0, 0, 1, -314.4345, -1109.7122)" opacity="0.25"><path stroke-width="5" d="M 11.4733 -0.7155 L 2322.8533 0.6751 Q 2332.8533 0.6751 2332.8533 10.6751 L 2333.8315 3106.557 Q 2333.8315 3116.557 2323.8315 3116.557 L 9.383 3117.5593 Q -0.617 3117.5593 -0.617 3107.5593 L 1.4733 9.2845 Q 1.4733 -0.7155 11.4733 -0.7155 M 10.8196 -0.1848 L 2322.682 0.2958 Q 2332.682 0.2958 2332.682 10.2958 L 2331.3897 3107.7594 Q 2331.3897 3117.7594 2321.3897 3117.7594 L 10.2486 3116.1965 Q 0.2486 3116.1965 0.2486 3106.1965 L 0.8196 9.8152 Q 0.8196 -0.1848 10.8196 -0.1848" fill="none" stroke="#1d1d1d"/></g></svg>