<svg xmlns="http://www.w3.org/2000/svg" direction="ltr" width="2332.227881640175" height="3117.0333599651963" viewBox="-314.434516207923 -1109.7122005738715 2332.227881640175 3117.0333599651963" stroke-linecap="round" stroke-linejoin="round" data-color-mode="light" class="tl-container tl-theme__force-sRGB tl-theme__light" style="background-color: transparent;"><defs/><g transform="matrix(1, 0, 0, 1, -314.4345, -1109.7122)" opacity="0.25"><path stroke-width="5" d="M 11.4733 -0.7155 L 2322.8533 0.6751 Q 2332.8533 0.6751 2332.8533 10.6751 L 2333.8315 3106.557 Q 2333.8315 3116.557 2323.8315 3116.557 L 9.383 3117.5593 Q -0.617 3117.5593 -0.617 3107.5593 L 1.4733 9.2845 Q 1.4733 -0.7155 11.4733 -0.7155 M 10.8196 -0.1848 L 2322.682 0.2958 Q 2332.682 0.2958 2332.682 10.2958 L 2331.3897 3107.7594 Q 2331.3897 3117.7594 2321.3897 3117.7594 L 10.2486 3116.1965 Q 0.2486 3116.1965 0.2486 3106.1965 L 0.8196 9.8152 Q 0.8196 -0.1848 10.8196 -0.1848" fill="none" stroke="#1d1d1d"/></g><g transform="matrix(1, 0, 0, 1, 1358.6008, 867.296)" opacity="1"><g stroke-width="5" transform="scale(1)" stroke="#4465e9" fill="none"><path d="M -17.1851 -5.2922 C -17.1851 -5.2922 -12.449 -201.9094 -57.7201 -214.8875" stroke-dasharray="10.235761279404494 11.259337407344944" stroke-dashoffset="0"/><path d="M -57.7201 -214.8875 C -102.9913 -227.8656 -234.4867 -67.5871 -234.4867 -67.5871" stroke-dasharray="10.017119619873561 10.927766858043885" stroke-dashoffset="5"/></g></g><g transform="matrix(1, 0, 0, 1, 1045.4921, 820.3986)" opacity="1"><g stroke-width="5" transform="scale(1)" stroke="#4465e9" fill="none"><path d="M -16.6873 -7.3376 C -16.6873 -7.3376 23.0681 25.1967 41.2 25.576" stroke-dasharray="12.052595205176656 18.078892807764984" stroke-dashoffset="0"/><path d="M 41.2 25.576 C 59.3319 25.9553 70.346 -5.517 70.346 -5.517" stroke-dasharray="16.684164952023956 16.684164952023956" stroke-dashoffset="5"/></g></g></svg>