<svg xmlns="http://www.w3.org/2000/svg" direction="ltr" width="2332.227881640175" height="3117.0333599651963" viewBox="-314.434516207923 -1109.7122005738715 2332.227881640175 3117.0333599651963" stroke-linecap="round" stroke-linejoin="round" data-color-mode="light" class="tl-container tl-theme__force-sRGB tl-theme__light" style="background-color: transparent;"><defs/><g transform="matrix(1, 0, 0, 1, -314.4345, -1109.7122)" opacity="0.25"><path stroke-width="5" d="M 11.4733 -0.7155 L 2322.8533 0.6751 Q 2332.8533 0.6751 2332.8533 10.6751 L 2333.8315 3106.557 Q 2333.8315 3116.557 2323.8315 3116.557 L 9.383 3117.5593 Q -0.617 3117.5593 -0.617 3107.5593 L 1.4733 9.2845 Q 1.4733 -0.7155 11.4733 -0.7155 M 10.8196 -0.1848 L 2322.682 0.2958 Q 2332.682 0.2958 2332.682 10.2958 L 2331.3897 3107.7594 Q 2331.3897 3117.7594 2321.3897 3117.7594 L 10.2486 3116.1965 Q 0.2486 3116.1965 0.2486 3106.1965 L 0.8196 9.8152 Q 0.8196 -0.1848 10.8196 -0.1848" fill="none" stroke="#1d1d1d"/></g><g transform="matrix(1, 0, 0, 1, 512.698, -291.1299)" opacity="1"><g stroke-width="5" transform="scale(1)" stroke="#4cb05e" fill="none"><path d="M 0 0 C 0 0 -39.6225 -24.8416 -71.7183 -7.4706" stroke-dasharray="10.029466810789001 13.372622414385335" stroke-dashoffset="0"/><path d="M -71.7183 -7.4706 C -103.814 9.9003 -134.1819 39.583 -154.0596 83.3806" stroke-dasharray="11.233764497067837 13.480517396481403" stroke-dashoffset="5"/><path d="M -154.0596 83.3806 C -173.9374 127.1782 -198.2161 155.3292 -167.1315 202.758" stroke-dasharray="11.516796040787428 13.820155248944914" stroke-dashoffset="5"/><path d="M -167.1315 202.758 C -136.0469 250.1869 -83.6345 241.5393 -4.8538 311.0391" stroke-dasharray="10.344214356417485 11.493571507130541" stroke-dashoffset="5"/><path d="M -4.8538 311.0391 C 73.927 380.5389 136.6234 488.1824 211.0159 536.3572" stroke-dasharray="10.089653862921383 10.762297453782809" stroke-dashoffset="5"/><path d="M 211.0159 536.3572 C 285.4084 584.532 300.2812 540.7382 352.2303 542.278" stroke-dasharray="11.315925133362141 13.201912655589163" stroke-dashoffset="5"/><path d="M 352.2303 542.278 C 404.1794 543.8178 420.9646 518.2116 460.3716 543.7482" stroke-dasharray="10.117661827521017 12.14119419302522" stroke-dashoffset="5"/><path d="M 460.3716 543.7482 C 499.7787 569.2847 496.103 605.2769 541.3843 664.8533" stroke-dasharray="11.225569982428459 13.096498312833203" stroke-dashoffset="5"/><path d="M 541.3843 664.8533 C 586.6656 724.4298 622.2763 772.1207 677.7218 829.715" stroke-dasharray="10.185516285251115 11.204067913776226" stroke-dashoffset="5"/><path d="M 677.7218 829.715 C 733.1673 887.3093 773.7466 893.4919 807.5228 941.306" stroke-dasharray="10.1061061435778 11.369369411525026" stroke-dashoffset="5"/><path d="M 807.5228 941.306 C 841.2989 989.12 834.2642 1014.8975 839.8475 1059.2225" stroke-dasharray="11.204278461546537 13.445134153855843" stroke-dashoffset="5"/><path d="M 839.8475 1059.2225 C 845.4308 1103.5476 834.3226 1154.0663 834.3226 1154.0663" stroke-dasharray="10.038512555116375 12.54814069389547" stroke-dashoffset="5"/></g></g></svg>