<svg xmlns="http://www.w3.org/2000/svg" direction="ltr" width="2332.227881640175" height="3117.0333599651963" viewBox="-314.434516207923 -1109.7122005738715 2332.227881640175 3117.0333599651963" stroke-linecap="round" stroke-linejoin="round" data-color-mode="light" class="tl-container tl-theme__force-sRGB tl-theme__light" style="background-color: transparent;"><defs/><g transform="matrix(1, 0, 0, 1, 48.6859, 1027.6898)" opacity="1"><g stroke-width="5" transform="scale(1)" stroke="#f1ac4b" fill="none"><path d="M -2.1491 0 C -2.1491 0 -47.311 0.0961 -37.889 44.2039" stroke-dasharray="11.98817076187172 17.98225614280758" stroke-dashoffset="0"/><path d="M -37.889 44.2039 C -28.467 88.3117 7.5797 169.763 43.0766 211.7175" stroke-dasharray="10.965337163261024 12.336004308668652" stroke-dashoffset="5"/><path d="M 43.0766 211.7175 C 78.5735 253.672 97.2159 235.2319 132.4962 245.5855" stroke-dasharray="10.959864882190248 13.699831102737809" stroke-dashoffset="5"/><path d="M 132.4962 245.5855 C 167.7765 255.9391 175.6505 276.9457 212.4222 261.4147" stroke-dasharray="11.886766573796528 15.849022098395372" stroke-dashoffset="5"/><path d="M 212.4222 261.4147 C 249.1938 245.8837 274.2465 200.2184 309.0001 171.0366" stroke-dasharray="10.223925863032921 11.927913506871741" stroke-dashoffset="5"/><path d="M 309.0001 171.0366 C 343.7537 141.8548 350.8746 153.0682 379.2394 121.342" stroke-dasharray="12.075708755659106 16.100945007545473" stroke-dashoffset="5"/><path d="M 379.2394 121.342 C 407.6041 89.6157 423.467 73.425 445.1508 18.7507" stroke-dasharray="11.073499153808536 13.288198984570244" stroke-dashoffset="5"/><path d="M 445.1508 18.7507 C 466.8346 -35.9237 460.2763 -101.021 483.3216 -141.0948" stroke-dasharray="10.941582212579272 12.504665385804882" stroke-dashoffset="5"/><path d="M 483.3216 -141.0948 C 506.3669 -181.1687 527.1623 -172.4337 555.7684 -173.6037" stroke-dasharray="11.972323260127649 15.963097680170199" stroke-dashoffset="5"/><path d="M 555.7684 -173.6037 C 584.3745 -174.7738 581.7916 -182.988 620.6307 -146.7111" stroke-dasharray="10.571710963376397 14.095614617835196" stroke-dashoffset="5"/><path d="M 620.6307 -146.7111 C 659.4699 -110.4342 660.5837 -7.1723 742.1964 0.5254" stroke-dasharray="10.524616315867117 11.694018128741241" stroke-dashoffset="5"/><path d="M 742.1964 0.5254 C 823.8092 8.2231 941.2438 -68.3315 1012.3719 -109.762" stroke-dasharray="10.195059200538171 10.923277714862326" stroke-dashoffset="5"/><path d="M 1012.3719 -109.762 C 1083.5001 -151.1926 1056.9441 -162.7261 1083.6115 -198.3414" stroke-dasharray="10.624893650268206 12.749872380321847" stroke-dashoffset="5"/><path d="M 1083.6115 -198.3414 C 1110.279 -233.9566 1122.7101 -257.3148 1140.3757 -280.7152" stroke-dasharray="11.005858507769542 13.757323134711928" stroke-dashoffset="5"/><path d="M 1140.3757 -280.7152 C 1158.0413 -304.1157 1158.1811 -299.1602 1168.4066 -310.6635" stroke-dasharray="17.044081201205234 17.044081201205234" stroke-dashoffset="5"/><path d="M 1168.4066 -310.6635 C 1178.6322 -322.1669 1181.3133 -329.0448 1189.4583 -335.9315" stroke-dasharray="13.729232559740833 13.729232559740833" stroke-dashoffset="4.11876976792225"/><path d="M 1189.4583 -335.9315 C 1197.6032 -342.8182 1192.3243 -339.8823 1207.5024 -343.7197" stroke-dasharray="8.39594323871611 8.39594323871611" stroke-dashoffset="2.5187829716148338"/><path d="M 1207.5024 -343.7197 C 1222.6805 -347.557 1246.3187 -391.6788 1262.3131 -354.3509" stroke-dasharray="10.050359841038748 13.400479788051664" stroke-dashoffset="5"/><path d="M 1262.3131 -354.3509 C 1278.3076 -317.0229 1284.2758 -164.5455 1284.2758 -164.5455" stroke-dasharray="10.920349298651884 12.28539296098337" stroke-dashoffset="5"/></g></g><g transform="matrix(1, 0, 0, 1, -314.4345, -1109.7122)" opacity="0.25"><path stroke-width="5" d="M 11.4733 -0.7155 L 2322.8533 0.6751 Q 2332.8533 0.6751 2332.8533 10.6751 L 2333.8315 3106.557 Q 2333.8315 3116.557 2323.8315 3116.557 L 9.383 3117.5593 Q -0.617 3117.5593 -0.617 3107.5593 L 1.4733 9.2845 Q 1.4733 -0.7155 11.4733 -0.7155 M 10.8196 -0.1848 L 2322.682 0.2958 Q 2332.682 0.2958 2332.682 10.2958 L 2331.3897 3107.7594 Q 2331.3897 3117.7594 2321.3897 3117.7594 L 10.2486 3116.1965 Q 0.2486 3116.1965 0.2486 3106.1965 L 0.8196 9.8152 Q 0.8196 -0.1848 10.8196 -0.1848" fill="none" stroke="#1d1d1d"/></g></svg>