<svg xmlns="http://www.w3.org/2000/svg" direction="ltr" width="2332.227881640175" height="3117.0333599651963" viewBox="-314.434516207923 -1109.7122005738715 2332.227881640175 3117.0333599651963" stroke-linecap="round" stroke-linejoin="round" data-color-mode="light" class="tl-container tl-theme__force-sRGB tl-theme__light" style="background-color: transparent;"><defs/><g transform="matrix(1, 0, 0, 1, -314.4345, -1109.7122)" opacity="0.25"><path stroke-width="5" d="M 11.4733 -0.7155 L 2322.8533 0.6751 Q 2332.8533 0.6751 2332.8533 10.6751 L 2333.8315 3106.557 Q 2333.8315 3116.557 2323.8315 3116.557 L 9.383 3117.5593 Q -0.617 3117.5593 -0.617 3107.5593 L 1.4733 9.2845 Q 1.4733 -0.7155 11.4733 -0.7155 M 10.8196 -0.1848 L 2322.682 0.2958 Q 2332.682 0.2958 2332.682 10.2958 L 2331.3897 3107.7594 Q 2331.3897 3117.7594 2321.3897 3117.7594 L 10.2486 3116.1965 Q 0.2486 3116.1965 0.2486 3106.1965 L 0.8196 9.8152 Q 0.8196 -0.1848 10.8196 -0.1848" fill="none" stroke="#1d1d1d"/></g><g transform="matrix(1, 0, 0, 1, 1349.206, 868.572)" opacity="1"><g stroke-width="5" transform="scale(1)" stroke="#9fa8b2" fill="none"><path d="M 3.2712 -1.6356 C 3.2712 -1.6356 35.2966 -53.0111 47.42 -104.4655" stroke-dasharray="11.731437391546192 14.664296739432741" stroke-dashoffset="0"/><path d="M 47.42 -104.4655 C 59.5434 -155.9198 67.7003 -170.1555 61.4635 -248.6164" stroke-dasharray="11.134724294630152 12.990511677068511" stroke-dashoffset="5"/><path d="M 61.4635 -248.6164 C 55.2268 -327.0774 24.2609 -369.6226 17.4836 -481.0781" stroke-dasharray="10.294854342629568 11.230750191959528" stroke-dashoffset="5"/><path d="M 17.4836 -481.0781 C 10.7063 -592.5336 6.299 -691.9542 28.9325 -783.6029" stroke-dasharray="10.464505053553388 11.211969700235773" stroke-dashoffset="5"/><path d="M 28.9325 -783.6029 C 51.566 -875.2515 104.0355 -867.6011 126.1245 -920.9918" stroke-dasharray="10.098010680952841 11.360262016071946" stroke-dashoffset="5"/><path d="M 126.1245 -920.9918 C 148.2134 -974.3825 145.3535 -1000.1123 134.9595 -1039.8782" stroke-dasharray="11.008662855239173 13.210395426287008" stroke-dashoffset="5"/><path d="M 134.9595 -1039.8782 C 124.5655 -1079.6441 76.2332 -1111.8681 76.2332 -1111.8681" stroke-dasharray="12.453756841724617 16.60500912229949" stroke-dashoffset="5"/></g></g></svg>