<svg xmlns="http://www.w3.org/2000/svg" direction="ltr" width="2332.227881640175" height="3117.0333599651963" viewBox="-314.434516207923 -1109.7122005738715 2332.227881640175 3117.0333599651963" stroke-linecap="round" stroke-linejoin="round" data-color-mode="light" class="tl-container tl-theme__force-sRGB tl-theme__light" style="background-color: transparent;"><defs/><g transform="matrix(1, 0, 0, 1, -314.4345, -1109.7122)" opacity="0.25"><path stroke-width="5" d="M 11.4733 -0.7155 L 2322.8533 0.6751 Q 2332.8533 0.6751 2332.8533 10.6751 L 2333.8315 3106.557 Q 2333.8315 3116.557 2323.8315 3116.557 L 9.383 3117.5593 Q -0.617 3117.5593 -0.617 3107.5593 L 1.4733 9.2845 Q 1.4733 -0.7155 11.4733 -0.7155 M 10.8196 -0.1848 L 2322.682 0.2958 Q 2332.682 0.2958 2332.682 10.2958 L 2331.3897 3107.7594 Q 2331.3897 3117.7594 2321.3897 3117.7594 L 10.2486 3116.1965 Q 0.2486 3116.1965 0.2486 3106.1965 L 0.8196 9.8152 Q 0.8196 -0.1848 10.8196 -0.1848" fill="none" stroke="#1d1d1d"/></g><g transform="matrix(1, 0, 0, 1, 327.4256, 1699.3276)" opacity="1"><g stroke-width="5" transform="scale(1)" stroke="#e03131" fill="none"><path d="M 5.2757 -0.8792 C 5.2757 -0.8792 200.4225 11.5516 284.4287 20.1822" stroke-dasharray="10.177032836709149 10.959881516456006" stroke-dashoffset="0"/><path d="M 284.4287 20.1822 C 368.435 28.8128 353.0112 31.6885 408.5056 40.5477" stroke-dasharray="11.319969144913047 13.583962973895657" stroke-dashoffset="5"/><path d="M 408.5056 40.5477 C 464 49.407 455.4077 43.2531 550.8017 62.7066" stroke-dasharray="11.005854259734317 12.840163303023369" stroke-dashoffset="5"/><path d="M 550.8017 62.7066 C 646.1957 82.1602 713.2933 139.8293 866.3966 133.9248" stroke-dasharray="10.499999745788399 11.19999972884096" stroke-dashoffset="5"/><path d="M 866.3966 133.9248 C 1019.5 128.0203 1170.7012 72.4168 1285.6979 34.365" stroke-dasharray="10.057478684875152 10.536406241297778" stroke-dashoffset="5"/><path d="M 1285.6979 34.365 C 1400.6946 -3.6868 1375.1892 20.3917 1418.3808 -48.7237" stroke-dasharray="10.931746498904877 12.493424570177002" stroke-dashoffset="5"/><path d="M 1418.3808 -48.7237 C 1461.5723 -117.8392 1461.2656 -217.0107 1493.0173 -297.389" stroke-dasharray="10.410267486286065 11.277789776809904" stroke-dashoffset="5"/><path d="M 1493.0173 -297.389 C 1524.769 -377.7673 1550.0749 -386.2085 1570.7891 -434.5397" stroke-dasharray="10.50947280307042 12.010826060651908" stroke-dashoffset="5"/><path d="M 1570.7891 -434.5397 C 1591.5033 -482.8708 1595.5314 -497.4786 1592.4455 -529.3786" stroke-dasharray="10.868360277088035 13.585450346360044" stroke-dashoffset="5"/><path d="M 1592.4455 -529.3786 C 1589.3597 -561.2785 1584.1552 -557.2704 1555.977 -587.6595" stroke-dasharray="10.152624848112541 13.536833130816722" stroke-dashoffset="5"/><path d="M 1555.977 -587.6595 C 1527.7988 -618.0486 1499.7802 -633.7924 1457.1902 -675.2462" stroke-dasharray="10.150673776679273 11.842452739459153" stroke-dashoffset="5"/><path d="M 1457.1902 -675.2462 C 1414.6002 -716.7001 1394.2428 -758.9655 1351.545 -786.638" stroke-dasharray="10.253643657861357 11.718449894698693" stroke-dashoffset="5"/><path d="M 1351.545 -786.638 C 1308.8472 -814.3106 1304.532 -817.5105 1252.2406 -808.0746" stroke-dasharray="11.618920616106085 14.523650770132608" stroke-dashoffset="5"/><path d="M 1252.2406 -808.0746 C 1199.9491 -798.6388 1144.5477 -753.7756 1100.546 -741.3458" stroke-dasharray="11.0182584147998 12.59229533119977" stroke-dashoffset="5"/><path d="M 1100.546 -741.3458 C 1056.5443 -728.9161 1058.3775 -736.464 1041.0323 -748.4118" stroke-dasharray="12.35981314190226 18.53971971285339" stroke-dashoffset="5"/><path d="M 1041.0323 -748.4118 C 1023.6871 -760.3597 1017.289 -798.6956 1017.289 -798.6956" stroke-dasharray="10.294767371517757 15.442151057276636" stroke-dashoffset="5"/></g></g></svg>