<svg xmlns="http://www.w3.org/2000/svg" direction="ltr" width="2332.227881640175" height="3117.0333599651963" viewBox="-314.434516207923 -1109.7122005738715 2332.227881640175 3117.0333599651963" stroke-linecap="round" stroke-linejoin="round" data-color-mode="light" class="tl-container tl-theme__force-sRGB tl-theme__light" style="background-color: transparent;"><defs/><g transform="matrix(1, 0, 0, 1, -314.4345, -1109.7122)" opacity="0.25"><path stroke-width="5" d="M 11.4733 -0.7155 L 2322.8533 0.6751 Q 2332.8533 0.6751 2332.8533 10.6751 L 2333.8315 3106.557 Q 2333.8315 3116.557 2323.8315 3116.557 L 9.383 3117.5593 Q -0.617 3117.5593 -0.617 3107.5593 L 1.4733 9.2845 Q 1.4733 -0.7155 11.4733 -0.7155 M 10.8196 -0.1848 L 2322.682 0.2958 Q 2332.682 0.2958 2332.682 10.2958 L 2331.3897 3107.7594 Q 2331.3897 3117.7594 2321.3897 3117.7594 L 10.2486 3116.1965 Q 0.2486 3116.1965 0.2486 3106.1965 L 0.8196 9.8152 Q 0.8196 -0.1848 10.8196 -0.1848" fill="none" stroke="#1d1d1d"/></g><g transform="matrix(1, 0, 0, 1, 1337.6946, 900.07)" opacity="1"><g stroke-width="5" transform="scale(1)" stroke="#1d1d1d" fill="none"><path d="M 0 0 C 0 0 -4.6041 33.5917 12.3649 50.1111" stroke-dasharray="19.422855525919022 19.422855525919022" stroke-dashoffset="0"/><path d="M 12.3649 50.1111 C 29.3338 66.6306 24.7668 87.2493 81.451 79.2935" stroke-dasharray="11.48950004810056 15.319333397467412" stroke-dashoffset="5"/><path d="M 81.451 79.2935 C 138.1351 71.3378 209.3458 -1.2541 284.449 11.9236" stroke-dasharray="10.330407446551824 11.363448191207004" stroke-dashoffset="5"/><path d="M 284.449 11.9236 C 359.5521 25.1014 383.1323 84.4012 441.9459 142.5466" stroke-dasharray="10.964976109427777 12.183306788253086" stroke-dashoffset="5"/><path d="M 441.9459 142.5466 C 500.7596 200.6921 559.8349 221.1451 566.7544 291.0216" stroke-dasharray="10.477665569516795 11.641850632796439" stroke-dashoffset="5"/><path d="M 566.7544 291.0216 C 573.6739 360.8981 518.7515 373.2773 475.1597 477.954" stroke-dasharray="10.102619368470581 11.11288130531764" stroke-dashoffset="5"/><path d="M 475.1597 477.954 C 431.568 582.6306 427.0627 743.6553 357.514 793.4694" stroke-dasharray="10.335487466060728 10.981455432689524" stroke-dashoffset="5"/><path d="M 357.514 793.4694 C 287.9652 843.2834 141.3258 717.0615 141.3258 717.0615" stroke-dasharray="10.312284594001135 11.249765011637601" stroke-dashoffset="5"/></g></g></svg>