<svg xmlns="http://www.w3.org/2000/svg" direction="ltr" width="2332.227881640175" height="3117.0333599651963" viewBox="-314.434516207923 -1109.7122005738715 2332.227881640175 3117.0333599651963" stroke-linecap="round" stroke-linejoin="round" data-color-mode="light" class="tl-container tl-theme__force-sRGB tl-theme__light" style="background-color: transparent;"><defs/><g transform="matrix(1, 0, 0, 1, -314.4345, -1109.7122)" opacity="0.25"><path stroke-width="5" d="M 11.4733 -0.7155 L 2322.8533 0.6751 Q 2332.8533 0.6751 2332.8533 10.6751 L 2333.8315 3106.557 Q 2333.8315 3116.557 2323.8315 3116.557 L 9.383 3117.5593 Q -0.617 3117.5593 -0.617 3107.5593 L 1.4733 9.2845 Q 1.4733 -0.7155 11.4733 -0.7155 M 10.8196 -0.1848 L 2322.682 0.2958 Q 2332.682 0.2958 2332.682 10.2958 L 2331.3897 3107.7594 Q 2331.3897 3117.7594 2321.3897 3117.7594 L 10.2486 3116.1965 Q 0.2486 3116.1965 0.2486 3106.1965 L 0.8196 9.8152 Q 0.8196 -0.1848 10.8196 -0.1848" fill="none" stroke="#1d1d1d"/></g><g transform="matrix(1, 0, 0, 1, 1257.3938, 1533.3774)" opacity="1"><g stroke-width="5" transform="scale(1)" stroke="#4ba1f1" fill="none"><path d="M 6.4121 -7.578 C 6.4121 -7.578 279.7706 174.4472 387.9689 192.4753" stroke-dasharray="10.419218217911114 10.940179128806669" stroke-dashoffset="0"/><path d="M 387.9689 192.4753 C 496.1671 210.5034 493.6503 117.4531 525.7638 78.9571" stroke-dasharray="10.444686915913394 11.605207684348215" stroke-dashoffset="5"/><path d="M 525.7638 78.9571 C 557.8773 40.461 534.3246 37.9317 542.1137 7.6942" stroke-dasharray="10.811650879620789 14.415534506161052" stroke-dashoffset="5"/><path d="M 542.1137 7.6942 C 549.9028 -22.5433 550.9798 -28.5879 563.1516 -66.183" stroke-dasharray="10.854523114393778 14.47269748585837" stroke-dashoffset="5"/><path d="M 563.1516 -66.183 C 575.3234 -103.7782 578.2392 -125.3121 600.5384 -172.7623" stroke-dasharray="10.258136030126996 12.309763236152397" stroke-dashoffset="5"/><path d="M 600.5384 -172.7623 C 622.8375 -220.2125 656.0853 -244.5154 670.1877 -293.9441" stroke-dasharray="10.741627488083129 12.531898736096984" stroke-dashoffset="5"/><path d="M 670.1877 -293.9441 C 684.29 -343.3727 697.6349 -361.2774 668.2298 -410.0196" stroke-dasharray="10.981566274980011 13.177879529976014" stroke-dashoffset="5"/><path d="M 668.2298 -410.0196 C 638.8246 -458.7618 589.5084 -475.3596 529.043 -527.9066" stroke-dasharray="10.752326385825217 12.096367184053369" stroke-dashoffset="5"/><path d="M 529.043 -527.9066 C 468.5776 -580.4536 454.5115 -647.7804 377.996 -662.2451" stroke-dasharray="10.83858457918908 12.042871754654534" stroke-dashoffset="5"/><path d="M 377.996 -662.2451 C 301.4805 -676.7098 220.791 -602.8403 161.7685 -597.3372" stroke-dasharray="10.86204696336126 11.948251659697387" stroke-dashoffset="5"/><path d="M 161.7685 -597.3372 C 102.746 -591.8341 94.688 -635.8301 94.688 -635.8301" stroke-dasharray="11.238031219426105 14.984041625901474" stroke-dashoffset="5"/></g></g></svg>